<?xml version="1.0" standalone="no"?>
<!DOCTYPE svg PUBLIC "-//W3C//DTD SVG 20010904//EN"
 "http://www.w3.org/TR/2001/REC-SVG-20010904/DTD/svg10.dtd">
<svg version="1.0" xmlns="http://www.w3.org/2000/svg"
 width="16.000000pt" height="16.000000pt" viewBox="0 0 16.000000 16.000000"
 preserveAspectRatio="xMidYMid meet">
<metadata>
Created by potrace 1.11, written by Peter Selinger 2001-2013
</metadata>
<g transform="translate(0.000000,16.000000) scale(0.020000,-0.020000)"
fill="#000000" stroke="none">
<path d="M277 751 c-151 -50 -257 -194 -257 -351 0 -214 188 -385 407 -367 97
7 172 43 244 117 49 50 62 71 80 131 56 184 -20 367 -187 449 -87 42 -197 51
-287 21z m203 -16 c53 -11 107 -42 157 -88 98 -91 134 -240 87 -364 l-16 -43
-269 0 -269 0 0 109 0 110 112 80 c128 93 94 96 256 -16 l92 -64 0 -104 c0
-63 4 -105 10 -105 6 0 10 44 10 113 l0 113 -126 88 -126 87 -26 -17 c-15 -9
-73 -50 -128 -90 l-102 -74 -1 -125 c0 -112 1 -125 17 -126 9 -1 130 -2 269
-3 138 0 254 -4 257 -7 10 -10 -72 -85 -123 -112 -159 -87 -375 -27 -467 129
-155 264 82 575 386 509z"/>
</g>
</svg>
